<mxfile host="65bd71144e">
    <diagram id="WHZGx_XyxvtRaVAg5T50" name="Page-1">
        <mxGraphModel dx="1189" dy="1911" grid="1" gridSize="10" guides="1" tooltips="1" connect="1" arrows="1" fold="1" page="1" pageScale="1" pageWidth="850" pageHeight="1100" math="0" shadow="0">
            <root>
                <mxCell id="0"/>
                <mxCell id="1" parent="0"/>
                <mxCell id="6" style="edgeStyle=none;html=1;fontColor=#000000;strokeColor=#000000;entryX=0.5;entryY=0;entryDx=0;entryDy=0;" parent="1" source="4" target="7" edge="1">
                    <mxGeometry relative="1" as="geometry">
                        <mxPoint x="410" y="230" as="targetPoint"/>
                    </mxGeometry>
                </mxCell>
                <mxCell id="4" value="Inicio" style="rounded=1;whiteSpace=wrap;html=1;fontColor=#000000;strokeColor=#000000;" parent="1" vertex="1">
                    <mxGeometry x="350" y="60" width="120" height="60" as="geometry"/>
                </mxCell>
                <mxCell id="5" value="Button Start" style="text;html=1;strokeColor=none;fillColor=none;align=center;verticalAlign=middle;whiteSpace=wrap;rounded=0;fontColor=#000000;" parent="1" vertex="1">
                    <mxGeometry x="380" y="-10" width="60" height="30" as="geometry"/>
                </mxCell>
                <mxCell id="8" style="edgeStyle=none;html=1;fontColor=#000000;strokeColor=#000000;startArrow=none;" parent="1" source="109" edge="1">
                    <mxGeometry relative="1" as="geometry">
                        <mxPoint x="410" y="470" as="targetPoint"/>
                    </mxGeometry>
                </mxCell>
                <mxCell id="130" style="edgeStyle=orthogonalEdgeStyle;html=1;labelBackgroundColor=#000000;strokeColor=#000000;fontColor=#000000;startArrow=none;startFill=0;endArrow=classic;endFill=1;entryX=0.502;entryY=-0.04;entryDx=0;entryDy=0;entryPerimeter=0;" parent="1" source="134" target="128" edge="1">
                    <mxGeometry relative="1" as="geometry">
                        <mxPoint x="410" y="260" as="targetPoint"/>
                    </mxGeometry>
                </mxCell>
                <mxCell id="7" value="Imput button" style="shape=parallelogram;perimeter=parallelogramPerimeter;whiteSpace=wrap;html=1;fixedSize=1;fontColor=#000000;strokeColor=#000000;" parent="1" vertex="1">
                    <mxGeometry x="350" y="150" width="120" height="60" as="geometry"/>
                </mxCell>
                <mxCell id="10" style="edgeStyle=none;html=1;endArrow=classic;endFill=1;fontColor=#000000;strokeColor=#000000;entryX=0;entryY=0.5;entryDx=0;entryDy=0;entryPerimeter=0;" parent="1" source="9" target="16" edge="1">
                    <mxGeometry relative="1" as="geometry">
                        <mxPoint x="410" y="290" as="targetPoint"/>
                        <Array as="points">
                            <mxPoint x="320" y="510"/>
                            <mxPoint x="320" y="580"/>
                            <mxPoint x="320" y="640"/>
                        </Array>
                    </mxGeometry>
                </mxCell>
                <mxCell id="11" value="&amp;nbsp;Não&amp;nbsp;" style="edgeLabel;html=1;align=center;verticalAlign=middle;resizable=0;points=[];fontColor=#000000;" parent="10" vertex="1" connectable="0">
                    <mxGeometry x="-0.4369" relative="1" as="geometry">
                        <mxPoint x="30" y="-15" as="offset"/>
                    </mxGeometry>
                </mxCell>
                <mxCell id="108" value="Flse" style="edgeLabel;html=1;align=center;verticalAlign=middle;resizable=0;points=[];fontColor=#000000;" parent="10" vertex="1" connectable="0">
                    <mxGeometry x="0.8203" y="-2" relative="1" as="geometry">
                        <mxPoint x="-9" as="offset"/>
                    </mxGeometry>
                </mxCell>
                <mxCell id="13" style="edgeStyle=none;html=1;endArrow=diamond;endFill=1;fontColor=#000000;strokeColor=#000000;" parent="1" source="9" edge="1">
                    <mxGeometry relative="1" as="geometry">
                        <mxPoint x="410" y="600" as="targetPoint"/>
                    </mxGeometry>
                </mxCell>
                <mxCell id="27" value="True" style="edgeLabel;html=1;align=center;verticalAlign=middle;resizable=0;points=[];fontColor=#000000;" parent="13" vertex="1" connectable="0">
                    <mxGeometry x="-0.392" relative="1" as="geometry">
                        <mxPoint y="5" as="offset"/>
                    </mxGeometry>
                </mxCell>
                <mxCell id="9" value="Ligar" style="rhombus;whiteSpace=wrap;html=1;fontColor=#000000;strokeColor=#000000;" parent="1" vertex="1">
                    <mxGeometry x="370" y="470" width="80" height="80" as="geometry"/>
                </mxCell>
                <mxCell id="110" value="" style="edgeStyle=orthogonalEdgeStyle;html=1;labelBackgroundColor=#000000;strokeColor=#000000;fontColor=#000000;startArrow=none;startFill=0;endArrow=classic;endFill=1;" parent="1" source="16" target="109" edge="1">
                    <mxGeometry relative="1" as="geometry">
                        <Array as="points">
                            <mxPoint x="490" y="640.0000000000001"/>
                            <mxPoint x="490" y="440"/>
                        </Array>
                    </mxGeometry>
                </mxCell>
                <mxCell id="16" value="Ligar&amp;nbsp;" style="shape=cylinder3;whiteSpace=wrap;html=1;boundedLbl=1;backgroundOutline=1;size=15;strokeColor=#FF0000;fontColor=#FF0000;" parent="1" vertex="1">
                    <mxGeometry x="370" y="600" width="80" height="80" as="geometry"/>
                </mxCell>
                <mxCell id="18" value="Central&amp;nbsp;&lt;br&gt;Process" style="text;html=1;strokeColor=none;fillColor=none;align=center;verticalAlign=middle;whiteSpace=wrap;rounded=0;fontColor=#000000;" parent="1" vertex="1">
                    <mxGeometry x="780" y="740" width="60" height="30" as="geometry"/>
                </mxCell>
                <mxCell id="36" value="" style="edgeStyle=orthogonalEdgeStyle;html=1;labelBackgroundColor=#000000;strokeColor=#000000;fontColor=#000000;startArrow=none;startFill=0;endArrow=classic;endFill=1;" parent="1" source="19" target="23" edge="1">
                    <mxGeometry relative="1" as="geometry"/>
                </mxCell>
                <mxCell id="19" value="Inicio" style="rounded=1;whiteSpace=wrap;html=1;fontColor=#000000;strokeColor=#000000;" parent="1" vertex="1">
                    <mxGeometry x="750" y="800" width="120" height="60" as="geometry"/>
                </mxCell>
                <mxCell id="26" value="" style="edgeStyle=orthogonalEdgeStyle;curved=1;html=1;labelBackgroundColor=#000000;strokeColor=#000000;fontColor=#000000;endArrow=classic;endFill=1;" parent="1" source="23" target="25" edge="1">
                    <mxGeometry relative="1" as="geometry"/>
                </mxCell>
                <mxCell id="44" value="Sim" style="edgeLabel;html=1;align=center;verticalAlign=middle;resizable=0;points=[];fontColor=#000000;" parent="26" vertex="1" connectable="0">
                    <mxGeometry x="-0.6217" y="1" relative="1" as="geometry">
                        <mxPoint x="-1" y="7" as="offset"/>
                    </mxGeometry>
                </mxCell>
                <mxCell id="89" value="" style="edgeStyle=orthogonalEdgeStyle;html=1;labelBackgroundColor=#000000;strokeColor=#000000;fontColor=#FF0000;startArrow=none;startFill=0;endArrow=classic;endFill=1;" parent="1" source="23" edge="1">
                    <mxGeometry relative="1" as="geometry">
                        <mxPoint x="810" y="890" as="targetPoint"/>
                        <Array as="points">
                            <mxPoint x="970" y="980"/>
                            <mxPoint x="970" y="890"/>
                        </Array>
                    </mxGeometry>
                </mxCell>
                <mxCell id="92" value="&amp;nbsp;Não&amp;nbsp;" style="edgeLabel;html=1;align=center;verticalAlign=middle;resizable=0;points=[];fontColor=#000000;" parent="89" vertex="1" connectable="0">
                    <mxGeometry x="-0.7985" y="1" relative="1" as="geometry">
                        <mxPoint as="offset"/>
                    </mxGeometry>
                </mxCell>
                <mxCell id="23" value="Ligar == True" style="rhombus;whiteSpace=wrap;html=1;labelBackgroundColor=none;strokeColor=#000000;fontColor=#000000;" parent="1" vertex="1">
                    <mxGeometry x="755" y="930" width="110" height="100" as="geometry"/>
                </mxCell>
                <mxCell id="69" style="edgeStyle=orthogonalEdgeStyle;html=1;labelBackgroundColor=#000000;strokeColor=#000000;fontColor=#333300;startArrow=none;startFill=0;endArrow=classic;endFill=1;" parent="1" source="25" edge="1">
                    <mxGeometry relative="1" as="geometry">
                        <mxPoint x="810" y="1220" as="targetPoint"/>
                    </mxGeometry>
                </mxCell>
                <mxCell id="25" value="SA + SB = soma" style="whiteSpace=wrap;html=1;strokeColor=#000000;fontColor=#000000;labelBackgroundColor=none;" parent="1" vertex="1">
                    <mxGeometry x="750" y="1100" width="120" height="60" as="geometry"/>
                </mxCell>
                <mxCell id="31" value="Sensor A" style="text;html=1;strokeColor=none;fillColor=none;align=center;verticalAlign=middle;whiteSpace=wrap;rounded=0;labelBackgroundColor=none;fontColor=#000000;" parent="1" vertex="1">
                    <mxGeometry x="380" y="740" width="60" height="30" as="geometry"/>
                </mxCell>
                <mxCell id="35" value="" style="edgeStyle=orthogonalEdgeStyle;html=1;labelBackgroundColor=#000000;strokeColor=#000000;fontColor=#000000;startArrow=none;startFill=0;endArrow=classic;endFill=1;" parent="1" source="46" target="34" edge="1">
                    <mxGeometry relative="1" as="geometry"/>
                </mxCell>
                <mxCell id="32" value="Inicio" style="rounded=1;whiteSpace=wrap;html=1;fontColor=#000000;strokeColor=#000000;" parent="1" vertex="1">
                    <mxGeometry x="350" y="800" width="120" height="60" as="geometry"/>
                </mxCell>
                <mxCell id="41" value="" style="edgeStyle=orthogonalEdgeStyle;html=1;labelBackgroundColor=#000000;strokeColor=#000000;fontColor=#000000;startArrow=none;startFill=0;endArrow=classic;endFill=1;" parent="1" source="34" edge="1">
                    <mxGeometry relative="1" as="geometry">
                        <mxPoint x="410" y="1070" as="targetPoint"/>
                    </mxGeometry>
                </mxCell>
                <mxCell id="45" value="Sim" style="edgeLabel;html=1;align=center;verticalAlign=middle;resizable=0;points=[];fontColor=#000000;" parent="41" vertex="1" connectable="0">
                    <mxGeometry x="-0.7474" y="-1" relative="1" as="geometry">
                        <mxPoint x="1" y="11" as="offset"/>
                    </mxGeometry>
                </mxCell>
                <mxCell id="49" style="edgeStyle=orthogonalEdgeStyle;html=1;labelBackgroundColor=#000000;strokeColor=#000000;fontColor=#000000;startArrow=none;startFill=0;endArrow=classic;endFill=1;" parent="1" source="34" target="46" edge="1">
                    <mxGeometry relative="1" as="geometry">
                        <mxPoint x="240" y="980" as="targetPoint"/>
                        <Array as="points">
                            <mxPoint x="290" y="980"/>
                            <mxPoint x="290" y="900"/>
                        </Array>
                    </mxGeometry>
                </mxCell>
                <mxCell id="50" value="&amp;nbsp;Não&amp;nbsp;" style="edgeLabel;html=1;align=center;verticalAlign=middle;resizable=0;points=[];fontColor=#000000;" parent="49" vertex="1" connectable="0">
                    <mxGeometry x="-0.3292" relative="1" as="geometry">
                        <mxPoint x="40" y="24" as="offset"/>
                    </mxGeometry>
                </mxCell>
                <mxCell id="34" value="Ligar == True" style="rhombus;whiteSpace=wrap;html=1;labelBackgroundColor=none;strokeColor=#000000;fontColor=#000000;" parent="1" vertex="1">
                    <mxGeometry x="355" y="930" width="110" height="100" as="geometry"/>
                </mxCell>
                <mxCell id="38" value="" style="curved=1;endArrow=oval;html=1;labelBackgroundColor=#000000;strokeColor=#FF0000;fontColor=#000000;exitX=1;exitY=0;exitDx=0;exitDy=52.5;exitPerimeter=0;entryX=1;entryY=0;entryDx=0;entryDy=0;dashed=1;endFill=1;" parent="1" source="16" target="34" edge="1">
                    <mxGeometry width="50" height="50" relative="1" as="geometry">
                        <mxPoint x="690" y="880" as="sourcePoint"/>
                        <mxPoint x="740" y="830" as="targetPoint"/>
                        <Array as="points">
                            <mxPoint x="670" y="650"/>
                            <mxPoint x="620" y="970"/>
                        </Array>
                    </mxGeometry>
                </mxCell>
                <mxCell id="43" value="" style="edgeStyle=orthogonalEdgeStyle;html=1;labelBackgroundColor=#000000;strokeColor=#000000;fontColor=#331A00;startArrow=none;startFill=0;endArrow=diamond;endFill=1;" parent="1" source="39" target="42" edge="1">
                    <mxGeometry relative="1" as="geometry"/>
                </mxCell>
                <mxCell id="93" value="I" style="edgeLabel;html=1;align=center;verticalAlign=middle;resizable=0;points=[];fontColor=#000000;" parent="43" vertex="1" connectable="0">
                    <mxGeometry x="0.2217" y="-1" relative="1" as="geometry">
                        <mxPoint x="1" y="-10" as="offset"/>
                    </mxGeometry>
                </mxCell>
                <mxCell id="39" value="I = I + 1" style="shape=parallelogram;perimeter=parallelogramPerimeter;whiteSpace=wrap;html=1;fixedSize=1;labelBackgroundColor=none;strokeColor=#000000;fontColor=#000000;" parent="1" vertex="1">
                    <mxGeometry x="350" y="1220" width="120" height="60" as="geometry"/>
                </mxCell>
                <mxCell id="47" value="" style="edgeStyle=orthogonalEdgeStyle;html=1;labelBackgroundColor=#000000;strokeColor=#000000;fontColor=#000000;startArrow=none;startFill=0;endArrow=classic;endFill=1;entryX=1.071;entryY=0.554;entryDx=0;entryDy=0;entryPerimeter=0;exitX=0;exitY=0.5;exitDx=0;exitDy=0;exitPerimeter=0;" parent="1" source="42" target="46" edge="1">
                    <mxGeometry relative="1" as="geometry">
                        <Array as="points">
                            <mxPoint x="290" y="1370"/>
                            <mxPoint x="290" y="900"/>
                        </Array>
                    </mxGeometry>
                </mxCell>
                <mxCell id="67" style="edgeStyle=orthogonalEdgeStyle;html=1;entryX=0;entryY=0.5;entryDx=0;entryDy=0;dashed=1;labelBackgroundColor=#000000;strokeColor=#FF8000;fontColor=#333300;startArrow=none;startFill=0;endArrow=oval;endFill=1;" parent="1" source="42" target="25" edge="1">
                    <mxGeometry relative="1" as="geometry">
                        <Array as="points">
                            <mxPoint x="610" y="1370"/>
                            <mxPoint x="610" y="1130"/>
                        </Array>
                    </mxGeometry>
                </mxCell>
                <mxCell id="42" value="SensorA" style="shape=cylinder3;whiteSpace=wrap;html=1;boundedLbl=1;backgroundOutline=1;size=15;labelBackgroundColor=none;strokeColor=#FF8000;fontColor=#FF8000;" parent="1" vertex="1">
                    <mxGeometry x="380" y="1330" width="60" height="80" as="geometry"/>
                </mxCell>
                <mxCell id="48" value="" style="edgeStyle=orthogonalEdgeStyle;html=1;labelBackgroundColor=#000000;strokeColor=#000000;fontColor=#000000;startArrow=none;startFill=0;endArrow=none;endFill=1;" parent="1" source="32" target="46" edge="1">
                    <mxGeometry relative="1" as="geometry">
                        <mxPoint x="410" y="860" as="sourcePoint"/>
                        <mxPoint x="410" y="930" as="targetPoint"/>
                    </mxGeometry>
                </mxCell>
                <mxCell id="46" value="" style="shape=waypoint;sketch=0;size=6;pointerEvents=1;points=[];fillColor=default;resizable=0;rotatable=0;perimeter=centerPerimeter;snapToPoint=1;strokeColor=#000000;fontColor=#331A00;labelBackgroundColor=none;" parent="1" vertex="1">
                    <mxGeometry x="400" y="890" width="20" height="20" as="geometry"/>
                </mxCell>
                <mxCell id="52" value="Sensor B" style="text;html=1;strokeColor=none;fillColor=none;align=center;verticalAlign=middle;whiteSpace=wrap;rounded=0;labelBackgroundColor=none;fontColor=#000000;" parent="1" vertex="1">
                    <mxGeometry x="1130" y="740" width="60" height="30" as="geometry"/>
                </mxCell>
                <mxCell id="53" value="" style="edgeStyle=orthogonalEdgeStyle;html=1;labelBackgroundColor=#000000;strokeColor=#000000;fontColor=#000000;startArrow=none;startFill=0;endArrow=classic;endFill=1;" parent="1" source="65" target="59" edge="1">
                    <mxGeometry relative="1" as="geometry"/>
                </mxCell>
                <mxCell id="54" value="Inicio" style="rounded=1;whiteSpace=wrap;html=1;fontColor=#000000;strokeColor=#000000;" parent="1" vertex="1">
                    <mxGeometry x="1100" y="800" width="120" height="60" as="geometry"/>
                </mxCell>
                <mxCell id="55" value="" style="edgeStyle=orthogonalEdgeStyle;html=1;labelBackgroundColor=#000000;strokeColor=#000000;fontColor=#000000;startArrow=none;startFill=0;endArrow=classic;endFill=1;entryX=0.5;entryY=0;entryDx=0;entryDy=0;" parent="1" source="59" target="79" edge="1">
                    <mxGeometry relative="1" as="geometry">
                        <mxPoint x="1010" y="1020" as="targetPoint"/>
                    </mxGeometry>
                </mxCell>
                <mxCell id="56" value="Sim" style="edgeLabel;html=1;align=center;verticalAlign=middle;resizable=0;points=[];fontColor=#000000;" parent="55" vertex="1" connectable="0">
                    <mxGeometry x="-0.7474" y="-1" relative="1" as="geometry">
                        <mxPoint x="1" y="11" as="offset"/>
                    </mxGeometry>
                </mxCell>
                <mxCell id="57" style="edgeStyle=orthogonalEdgeStyle;html=1;labelBackgroundColor=#000000;strokeColor=#000000;fontColor=#000000;startArrow=none;startFill=0;endArrow=classic;endFill=1;" parent="1" source="59" target="65" edge="1">
                    <mxGeometry relative="1" as="geometry">
                        <mxPoint x="990" y="980" as="targetPoint"/>
                        <Array as="points">
                            <mxPoint x="1280" y="980"/>
                            <mxPoint x="1280" y="900"/>
                        </Array>
                    </mxGeometry>
                </mxCell>
                <mxCell id="58" value="&amp;nbsp;Não&amp;nbsp;" style="edgeLabel;html=1;align=center;verticalAlign=middle;resizable=0;points=[];fontColor=#000000;" parent="57" vertex="1" connectable="0">
                    <mxGeometry x="-0.3292" relative="1" as="geometry">
                        <mxPoint x="-30" y="24" as="offset"/>
                    </mxGeometry>
                </mxCell>
                <mxCell id="59" value="Ligar == True" style="rhombus;whiteSpace=wrap;html=1;labelBackgroundColor=none;strokeColor=#000000;fontColor=#000000;" parent="1" vertex="1">
                    <mxGeometry x="1105" y="930" width="110" height="100" as="geometry"/>
                </mxCell>
                <mxCell id="60" value="" style="edgeStyle=orthogonalEdgeStyle;html=1;labelBackgroundColor=#000000;strokeColor=#000000;fontColor=#331A00;startArrow=none;startFill=0;endArrow=diamond;endFill=1;" parent="1" source="61" target="63" edge="1">
                    <mxGeometry relative="1" as="geometry"/>
                </mxCell>
                <mxCell id="94" value="I" style="edgeLabel;html=1;align=center;verticalAlign=middle;resizable=0;points=[];fontColor=#000000;" parent="60" vertex="1" connectable="0">
                    <mxGeometry x="-0.2583" relative="1" as="geometry">
                        <mxPoint as="offset"/>
                    </mxGeometry>
                </mxCell>
                <mxCell id="61" value="I = I + 1" style="shape=parallelogram;perimeter=parallelogramPerimeter;whiteSpace=wrap;html=1;fixedSize=1;labelBackgroundColor=none;strokeColor=#000000;fontColor=#000000;" parent="1" vertex="1">
                    <mxGeometry x="1100" y="1220" width="120" height="60" as="geometry"/>
                </mxCell>
                <mxCell id="62" value="" style="edgeStyle=orthogonalEdgeStyle;html=1;labelBackgroundColor=#000000;strokeColor=#000000;fontColor=#000000;startArrow=none;startFill=0;endArrow=classic;endFill=1;entryX=1.071;entryY=0.554;entryDx=0;entryDy=0;entryPerimeter=0;" parent="1" source="63" target="65" edge="1">
                    <mxGeometry relative="1" as="geometry">
                        <Array as="points">
                            <mxPoint x="1280" y="1370"/>
                            <mxPoint x="1280" y="900"/>
                        </Array>
                    </mxGeometry>
                </mxCell>
                <mxCell id="68" style="edgeStyle=orthogonalEdgeStyle;html=1;entryX=1;entryY=0.5;entryDx=0;entryDy=0;dashed=1;labelBackgroundColor=#000000;strokeColor=#FFFF00;fontColor=#FFFF00;startArrow=none;startFill=0;endArrow=oval;endFill=1;" parent="1" source="63" target="25" edge="1">
                    <mxGeometry relative="1" as="geometry"/>
                </mxCell>
                <mxCell id="63" value="SensorB" style="shape=cylinder3;whiteSpace=wrap;html=1;boundedLbl=1;backgroundOutline=1;size=15;labelBackgroundColor=none;strokeColor=#FFFF00;fontColor=#FFFF00;" parent="1" vertex="1">
                    <mxGeometry x="1130" y="1330" width="60" height="80" as="geometry"/>
                </mxCell>
                <mxCell id="64" value="" style="edgeStyle=orthogonalEdgeStyle;html=1;labelBackgroundColor=#000000;strokeColor=#000000;fontColor=#000000;startArrow=none;startFill=0;endArrow=none;endFill=1;" parent="1" source="54" target="65" edge="1">
                    <mxGeometry relative="1" as="geometry">
                        <mxPoint x="1160" y="860" as="sourcePoint"/>
                        <mxPoint x="1160" y="930" as="targetPoint"/>
                    </mxGeometry>
                </mxCell>
                <mxCell id="65" value="" style="shape=waypoint;sketch=0;size=6;pointerEvents=1;points=[];fillColor=default;resizable=0;rotatable=0;perimeter=centerPerimeter;snapToPoint=1;strokeColor=#000000;fontColor=#331A00;labelBackgroundColor=none;" parent="1" vertex="1">
                    <mxGeometry x="1150" y="890" width="20" height="20" as="geometry"/>
                </mxCell>
                <mxCell id="66" value="" style="curved=1;endArrow=oval;html=1;labelBackgroundColor=#000000;strokeColor=#FF0000;fontColor=#000000;exitX=1;exitY=0;exitDx=0;exitDy=52.5;exitPerimeter=0;entryX=0;entryY=0;entryDx=0;entryDy=0;dashed=1;endFill=1;" parent="1" source="16" target="59" edge="1">
                    <mxGeometry width="50" height="50" relative="1" as="geometry">
                        <mxPoint x="690" y="790" as="sourcePoint"/>
                        <mxPoint x="740" y="740" as="targetPoint"/>
                        <Array as="points">
                            <mxPoint x="630" y="660"/>
                            <mxPoint x="920" y="653"/>
                            <mxPoint x="980" y="950"/>
                        </Array>
                    </mxGeometry>
                </mxCell>
                <mxCell id="24" style="edgeStyle=orthogonalEdgeStyle;html=1;labelBackgroundColor=#000000;strokeColor=#FF0000;fontColor=#000000;endArrow=oval;endFill=1;curved=1;dashed=1;exitX=1;exitY=0;exitDx=0;exitDy=52.5;exitPerimeter=0;entryX=0;entryY=0;entryDx=0;entryDy=0;" parent="1" source="16" target="23" edge="1">
                    <mxGeometry relative="1" as="geometry">
                        <mxPoint x="770" y="910" as="targetPoint"/>
                        <Array as="points">
                            <mxPoint x="670" y="653"/>
                            <mxPoint x="670" y="955"/>
                        </Array>
                    </mxGeometry>
                </mxCell>
                <mxCell id="71" style="edgeStyle=orthogonalEdgeStyle;html=1;labelBackgroundColor=#000000;strokeColor=#000000;fontColor=#333300;startArrow=none;startFill=0;endArrow=diamond;endFill=1;" parent="1" source="70" edge="1">
                    <mxGeometry relative="1" as="geometry">
                        <mxPoint x="810" y="1340" as="targetPoint"/>
                    </mxGeometry>
                </mxCell>
                <mxCell id="77" value="Sim" style="edgeLabel;html=1;align=center;verticalAlign=middle;resizable=0;points=[];fontColor=#000000;" parent="71" vertex="1" connectable="0">
                    <mxGeometry x="-0.2813" y="1" relative="1" as="geometry">
                        <mxPoint y="-64" as="offset"/>
                    </mxGeometry>
                </mxCell>
                <mxCell id="101" value="True" style="edgeLabel;html=1;align=center;verticalAlign=middle;resizable=0;points=[];fontColor=#000000;" parent="71" vertex="1" connectable="0">
                    <mxGeometry x="0.291" relative="1" as="geometry">
                        <mxPoint as="offset"/>
                    </mxGeometry>
                </mxCell>
                <mxCell id="70" value="Soma &amp;gt;= 500" style="rhombus;whiteSpace=wrap;html=1;labelBackgroundColor=none;strokeColor=#000000;fontColor=#000000;" parent="1" vertex="1">
                    <mxGeometry x="755" y="1185.75" width="110" height="100" as="geometry"/>
                </mxCell>
                <mxCell id="73" style="edgeStyle=orthogonalEdgeStyle;html=1;labelBackgroundColor=#000000;strokeColor=#000000;fontColor=#333300;startArrow=none;startFill=0;endArrow=classic;endFill=1;" parent="1" source="72" target="39" edge="1">
                    <mxGeometry relative="1" as="geometry"/>
                </mxCell>
                <mxCell id="74" style="edgeStyle=orthogonalEdgeStyle;html=1;labelBackgroundColor=#000000;strokeColor=#000000;fontColor=#333300;startArrow=none;startFill=0;endArrow=classic;endFill=1;" parent="1" source="72" target="46" edge="1">
                    <mxGeometry relative="1" as="geometry">
                        <Array as="points">
                            <mxPoint x="290" y="1120"/>
                            <mxPoint x="290" y="900"/>
                        </Array>
                    </mxGeometry>
                </mxCell>
                <mxCell id="75" value="&amp;nbsp;Não&amp;nbsp;" style="edgeLabel;html=1;align=center;verticalAlign=middle;resizable=0;points=[];fontColor=#000000;" parent="74" vertex="1" connectable="0">
                    <mxGeometry x="-0.9111" y="2" relative="1" as="geometry">
                        <mxPoint x="-7" y="-2" as="offset"/>
                    </mxGeometry>
                </mxCell>
                <mxCell id="72" value="Pausa == True" style="rhombus;whiteSpace=wrap;html=1;labelBackgroundColor=none;strokeColor=#000000;fontColor=#000000;" parent="1" vertex="1">
                    <mxGeometry x="355" y="1070" width="110" height="100" as="geometry"/>
                </mxCell>
                <mxCell id="78" style="edgeStyle=orthogonalEdgeStyle;html=1;entryX=1;entryY=0;entryDx=0;entryDy=0;labelBackgroundColor=#000000;strokeColor=#00FFFF;fontColor=#1A3300;startArrow=none;startFill=0;endArrow=oval;endFill=1;dashed=1;exitX=0;exitY=0.5;exitDx=0;exitDy=0;exitPerimeter=0;" parent="1" source="100" target="72" edge="1">
                    <mxGeometry relative="1" as="geometry">
                        <Array as="points">
                            <mxPoint x="690" y="1380"/>
                            <mxPoint x="690" y="1095"/>
                        </Array>
                    </mxGeometry>
                </mxCell>
                <mxCell id="103" style="edgeStyle=orthogonalEdgeStyle;html=1;labelBackgroundColor=#000000;strokeColor=#000000;fontColor=#000000;startArrow=none;startFill=0;endArrow=classic;endFill=1;" parent="1" source="76" edge="1">
                    <mxGeometry relative="1" as="geometry">
                        <mxPoint x="810" y="890" as="targetPoint"/>
                        <Array as="points">
                            <mxPoint x="970" y="1590"/>
                            <mxPoint x="970" y="890"/>
                        </Array>
                    </mxGeometry>
                </mxCell>
                <mxCell id="76" value="Peso" style="shape=cylinder3;whiteSpace=wrap;html=1;boundedLbl=1;backgroundOutline=1;size=15;labelBackgroundColor=none;strokeColor=#80FF00;fontColor=#80FF00;" parent="1" vertex="1">
                    <mxGeometry x="780" y="1554" width="60" height="80" as="geometry"/>
                </mxCell>
                <mxCell id="80" value="" style="edgeStyle=orthogonalEdgeStyle;html=1;labelBackgroundColor=#000000;strokeColor=#000000;fontColor=#1A3300;startArrow=none;startFill=0;endArrow=classic;endFill=1;" parent="1" source="79" target="61" edge="1">
                    <mxGeometry relative="1" as="geometry"/>
                </mxCell>
                <mxCell id="81" style="edgeStyle=orthogonalEdgeStyle;html=1;labelBackgroundColor=#000000;strokeColor=#000000;fontColor=#1A3300;startArrow=none;startFill=0;endArrow=classic;endFill=1;" parent="1" source="79" target="65" edge="1">
                    <mxGeometry relative="1" as="geometry">
                        <mxPoint x="1200" y="880" as="targetPoint"/>
                        <Array as="points">
                            <mxPoint x="1280" y="1130"/>
                            <mxPoint x="1280" y="900"/>
                        </Array>
                    </mxGeometry>
                </mxCell>
                <mxCell id="82" value="&amp;nbsp;Não&amp;nbsp;" style="edgeLabel;html=1;align=center;verticalAlign=middle;resizable=0;points=[];fontColor=#000000;" parent="81" vertex="1" connectable="0">
                    <mxGeometry x="-0.8745" relative="1" as="geometry">
                        <mxPoint as="offset"/>
                    </mxGeometry>
                </mxCell>
                <mxCell id="79" value="Pausa == True" style="rhombus;whiteSpace=wrap;html=1;labelBackgroundColor=none;strokeColor=#000000;fontColor=#000000;" parent="1" vertex="1">
                    <mxGeometry x="1105" y="1080" width="110" height="100" as="geometry"/>
                </mxCell>
                <mxCell id="83" style="edgeStyle=orthogonalEdgeStyle;html=1;entryX=0;entryY=0;entryDx=0;entryDy=0;labelBackgroundColor=#000000;strokeColor=#00FFFF;fontColor=#000000;startArrow=none;startFill=0;endArrow=oval;endFill=1;dashed=1;exitX=1;exitY=0.5;exitDx=0;exitDy=0;exitPerimeter=0;" parent="1" source="100" target="79" edge="1">
                    <mxGeometry relative="1" as="geometry">
                        <Array as="points">
                            <mxPoint x="930" y="1380"/>
                            <mxPoint x="930" y="1105"/>
                        </Array>
                    </mxGeometry>
                </mxCell>
                <mxCell id="95" value="2s" style="html=1;verticalLabelPosition=bottom;align=center;labelBackgroundColor=none;verticalAlign=top;strokeWidth=2;strokeColor=#0080F0;shadow=0;dashed=0;shape=mxgraph.ios7.icons.gauge;fontColor=#0080F0;fillColor=#000000;" parent="1" vertex="1">
                    <mxGeometry x="1200" y="1220" width="32.4" height="31.5" as="geometry"/>
                </mxCell>
                <mxCell id="96" value="1s" style="html=1;verticalLabelPosition=bottom;align=center;labelBackgroundColor=none;verticalAlign=top;strokeWidth=2;strokeColor=#0080F0;shadow=0;dashed=0;shape=mxgraph.ios7.icons.gauge;fontColor=#0080F0;fillColor=#000000;" parent="1" vertex="1">
                    <mxGeometry x="450" y="1220" width="32.4" height="31.5" as="geometry"/>
                </mxCell>
                <mxCell id="97" value="SA * 2 + SB * 5 + P = Pessagem" style="whiteSpace=wrap;html=1;strokeColor=#000000;fontColor=#000000;labelBackgroundColor=none;" parent="1" vertex="1">
                    <mxGeometry x="730" y="1450" width="160" height="60" as="geometry"/>
                </mxCell>
                <mxCell id="102" style="edgeStyle=orthogonalEdgeStyle;html=1;entryX=0.5;entryY=0;entryDx=0;entryDy=0;labelBackgroundColor=#000000;strokeColor=#000000;fontColor=#000000;startArrow=none;startFill=0;endArrow=classic;endFill=1;" parent="1" source="100" target="97" edge="1">
                    <mxGeometry relative="1" as="geometry">
                        <Array as="points">
                            <mxPoint x="810" y="1430"/>
                            <mxPoint x="810" y="1430"/>
                        </Array>
                    </mxGeometry>
                </mxCell>
                <mxCell id="100" value="Pausa" style="shape=cylinder3;whiteSpace=wrap;html=1;boundedLbl=1;backgroundOutline=1;size=15;labelBackgroundColor=none;strokeColor=#00FFFF;fontColor=#00FFFF;" parent="1" vertex="1">
                    <mxGeometry x="780" y="1340" width="60" height="80" as="geometry"/>
                </mxCell>
                <mxCell id="86" value="" style="edgeStyle=orthogonalEdgeStyle;html=1;labelBackgroundColor=#000000;strokeColor=#000000;fontColor=#000000;startArrow=oval;startFill=1;endArrow=diamond;endFill=1;entryX=0;entryY=0;entryDx=0;entryDy=52.5;entryPerimeter=0;" parent="1" target="100" edge="1">
                    <mxGeometry relative="1" as="geometry">
                        <mxPoint x="810" y="890" as="sourcePoint"/>
                        <mxPoint x="760" y="1410" as="targetPoint"/>
                        <Array as="points">
                            <mxPoint x="660" y="890"/>
                            <mxPoint x="660" y="1393"/>
                            <mxPoint x="780" y="1393"/>
                        </Array>
                    </mxGeometry>
                </mxCell>
                <mxCell id="87" value="&amp;nbsp;False&amp;nbsp;" style="edgeLabel;html=1;align=center;verticalAlign=middle;resizable=0;points=[];fontColor=#000000;" parent="86" vertex="1" connectable="0">
                    <mxGeometry x="0.9" relative="1" as="geometry">
                        <mxPoint x="-8" as="offset"/>
                    </mxGeometry>
                </mxCell>
                <mxCell id="104" style="edgeStyle=orthogonalEdgeStyle;html=1;entryX=0;entryY=0.25;entryDx=0;entryDy=0;labelBackgroundColor=#000000;strokeColor=#80FF00;fontColor=#000000;startArrow=none;startFill=0;endArrow=oval;endFill=1;dashed=1;" parent="1" source="76" target="97" edge="1">
                    <mxGeometry relative="1" as="geometry">
                        <Array as="points">
                            <mxPoint x="670" y="1594"/>
                            <mxPoint x="670" y="1465"/>
                        </Array>
                    </mxGeometry>
                </mxCell>
                <mxCell id="98" style="edgeStyle=orthogonalEdgeStyle;html=1;labelBackgroundColor=#000000;strokeColor=#000000;fontColor=#0080F0;startArrow=none;startFill=0;endArrow=diamond;endFill=1;entryX=0.5;entryY=0;entryDx=0;entryDy=0;entryPerimeter=0;" parent="1" source="97" target="76" edge="1">
                    <mxGeometry relative="1" as="geometry">
                        <mxPoint x="810" y="1550" as="targetPoint"/>
                        <Array as="points"/>
                    </mxGeometry>
                </mxCell>
                <mxCell id="99" value="Peso&amp;nbsp;" style="edgeLabel;html=1;align=center;verticalAlign=middle;resizable=0;points=[];fontColor=#000000;" parent="98" vertex="1" connectable="0">
                    <mxGeometry x="0.2163" relative="1" as="geometry">
                        <mxPoint y="-4" as="offset"/>
                    </mxGeometry>
                </mxCell>
                <mxCell id="113" value="" style="edgeStyle=orthogonalEdgeStyle;html=1;labelBackgroundColor=#000000;strokeColor=#000000;fontColor=#000000;startArrow=none;startFill=0;endArrow=classic;endFill=1;" parent="1" source="114" target="112" edge="1">
                    <mxGeometry relative="1" as="geometry"/>
                </mxCell>
                <mxCell id="106" value="Inicio" style="rounded=1;whiteSpace=wrap;html=1;fontColor=#000000;strokeColor=#000000;" parent="1" vertex="1">
                    <mxGeometry x="260" y="1730" width="120" height="60" as="geometry"/>
                </mxCell>
                <mxCell id="107" value="Leitor" style="text;html=1;strokeColor=none;fillColor=none;align=center;verticalAlign=middle;whiteSpace=wrap;rounded=0;labelBackgroundColor=none;fontColor=#000000;" parent="1" vertex="1">
                    <mxGeometry x="170" y="1745" width="60" height="30" as="geometry"/>
                </mxCell>
                <mxCell id="111" value="" style="edgeStyle=none;html=1;fontColor=#000000;strokeColor=#000000;endArrow=none;exitX=0.5;exitY=1;exitDx=0;exitDy=0;" parent="1" source="128" target="109" edge="1">
                    <mxGeometry relative="1" as="geometry">
                        <mxPoint x="410" y="470" as="targetPoint"/>
                        <mxPoint x="360" y="400" as="sourcePoint"/>
                        <Array as="points">
                            <mxPoint x="410" y="390"/>
                        </Array>
                    </mxGeometry>
                </mxCell>
                <mxCell id="129" value="Sim" style="edgeLabel;html=1;align=center;verticalAlign=middle;resizable=0;points=[];fontColor=#000000;" parent="111" vertex="1" connectable="0">
                    <mxGeometry x="-0.7542" y="1" relative="1" as="geometry">
                        <mxPoint x="-1" y="13" as="offset"/>
                    </mxGeometry>
                </mxCell>
                <mxCell id="109" value="" style="shape=waypoint;sketch=0;size=6;pointerEvents=1;points=[];fillColor=default;resizable=0;rotatable=0;perimeter=centerPerimeter;snapToPoint=1;strokeColor=#000000;fontColor=#FF0000;" parent="1" vertex="1">
                    <mxGeometry x="400" y="430" width="20" height="20" as="geometry"/>
                </mxCell>
                <mxCell id="115" value="" style="edgeStyle=orthogonalEdgeStyle;html=1;labelBackgroundColor=#000000;strokeColor=#000000;fontColor=#000000;startArrow=none;startFill=0;endArrow=classic;endFill=1;" parent="1" source="112" target="114" edge="1">
                    <mxGeometry relative="1" as="geometry">
                        <Array as="points">
                            <mxPoint x="545" y="1860"/>
                            <mxPoint x="425" y="1860"/>
                        </Array>
                    </mxGeometry>
                </mxCell>
                <mxCell id="117" value="&amp;nbsp;Não&amp;nbsp;" style="edgeLabel;html=1;align=center;verticalAlign=middle;resizable=0;points=[];fontColor=#000000;" parent="115" vertex="1" connectable="0">
                    <mxGeometry x="-0.3113" relative="1" as="geometry">
                        <mxPoint x="43" y="-30" as="offset"/>
                    </mxGeometry>
                </mxCell>
                <mxCell id="121" value="" style="edgeStyle=orthogonalEdgeStyle;curved=1;html=1;labelBackgroundColor=#000000;strokeColor=#000000;fontColor=#000000;startArrow=none;startFill=0;endArrow=classic;endFill=1;" parent="1" source="112" target="120" edge="1">
                    <mxGeometry relative="1" as="geometry"/>
                </mxCell>
                <mxCell id="126" value="&amp;nbsp;Sim&amp;nbsp;" style="edgeLabel;html=1;align=center;verticalAlign=middle;resizable=0;points=[];fontColor=#000000;" parent="121" vertex="1" connectable="0">
                    <mxGeometry x="-0.3115" y="-1" relative="1" as="geometry">
                        <mxPoint as="offset"/>
                    </mxGeometry>
                </mxCell>
                <mxCell id="112" value="Ligar == True" style="rhombus;whiteSpace=wrap;html=1;labelBackgroundColor=none;strokeColor=#000000;fontColor=#000000;" parent="1" vertex="1">
                    <mxGeometry x="490" y="1710" width="110" height="100" as="geometry"/>
                </mxCell>
                <mxCell id="116" value="" style="edgeStyle=orthogonalEdgeStyle;html=1;labelBackgroundColor=#000000;strokeColor=#000000;fontColor=#000000;startArrow=none;startFill=0;endArrow=none;endFill=1;" parent="1" source="106" target="114" edge="1">
                    <mxGeometry relative="1" as="geometry">
                        <mxPoint x="380" y="1760" as="sourcePoint"/>
                        <mxPoint x="490" y="1760" as="targetPoint"/>
                    </mxGeometry>
                </mxCell>
                <mxCell id="114" value="" style="shape=waypoint;sketch=0;size=6;pointerEvents=1;points=[];fillColor=default;resizable=0;rotatable=0;perimeter=centerPerimeter;snapToPoint=1;strokeColor=#000000;fontColor=#000000;labelBackgroundColor=none;" parent="1" vertex="1">
                    <mxGeometry x="415" y="1750" width="20" height="20" as="geometry"/>
                </mxCell>
                <mxCell id="118" style="edgeStyle=orthogonalEdgeStyle;html=1;entryX=1;entryY=0;entryDx=0;entryDy=0;labelBackgroundColor=#000000;strokeColor=#FF0000;fontColor=#000000;startArrow=none;startFill=0;endArrow=oval;endFill=1;dashed=1;curved=1;" parent="1" source="16" target="112" edge="1">
                    <mxGeometry relative="1" as="geometry">
                        <Array as="points">
                            <mxPoint x="410" y="740"/>
                            <mxPoint x="180" y="740"/>
                            <mxPoint x="180" y="1570"/>
                            <mxPoint x="573" y="1570"/>
                        </Array>
                    </mxGeometry>
                </mxCell>
                <mxCell id="125" style="edgeStyle=orthogonalEdgeStyle;html=1;labelBackgroundColor=#000000;strokeColor=#000000;fontColor=#000000;startArrow=none;startFill=0;endArrow=classic;endFill=1;entryX=0.524;entryY=0.853;entryDx=0;entryDy=0;entryPerimeter=0;" parent="1" source="120" target="114" edge="1">
                    <mxGeometry relative="1" as="geometry">
                        <mxPoint x="930" y="1760" as="targetPoint"/>
                        <Array as="points">
                            <mxPoint x="890" y="1760"/>
                            <mxPoint x="890" y="1860"/>
                            <mxPoint x="425" y="1860"/>
                        </Array>
                    </mxGeometry>
                </mxCell>
                <mxCell id="120" value="Print (sensor A+ sensor B) (Peso)" style="rounded=1;whiteSpace=wrap;html=1;fontColor=#000000;strokeColor=#000000;" parent="1" vertex="1">
                    <mxGeometry x="700" y="1730" width="120" height="60" as="geometry"/>
                </mxCell>
                <mxCell id="122" style="edgeStyle=orthogonalEdgeStyle;curved=1;html=1;entryX=0.25;entryY=0;entryDx=0;entryDy=0;labelBackgroundColor=#000000;strokeColor=#FF8000;fontColor=#000000;startArrow=none;startFill=0;endArrow=oval;endFill=1;dashed=1;" parent="1" source="42" target="120" edge="1">
                    <mxGeometry relative="1" as="geometry">
                        <Array as="points">
                            <mxPoint x="610" y="1370"/>
                            <mxPoint x="610" y="1730"/>
                        </Array>
                    </mxGeometry>
                </mxCell>
                <mxCell id="123" style="edgeStyle=orthogonalEdgeStyle;curved=1;html=1;entryX=0.5;entryY=0;entryDx=0;entryDy=0;dashed=1;labelBackgroundColor=#000000;strokeColor=#80FF00;fontColor=#000000;startArrow=none;startFill=0;endArrow=oval;endFill=1;" parent="1" source="76" target="120" edge="1">
                    <mxGeometry relative="1" as="geometry"/>
                </mxCell>
                <mxCell id="124" style="edgeStyle=orthogonalEdgeStyle;curved=1;html=1;entryX=0.75;entryY=0;entryDx=0;entryDy=0;dashed=1;labelBackgroundColor=#000000;strokeColor=#FFFF00;fontColor=#000000;startArrow=none;startFill=0;endArrow=oval;endFill=1;" parent="1" source="63" target="120" edge="1">
                    <mxGeometry relative="1" as="geometry">
                        <Array as="points">
                            <mxPoint x="1070" y="1370"/>
                            <mxPoint x="1070" y="1680"/>
                            <mxPoint x="790" y="1680"/>
                        </Array>
                    </mxGeometry>
                </mxCell>
                <mxCell id="136" style="edgeStyle=orthogonalEdgeStyle;html=1;entryX=0.667;entryY=0.608;entryDx=0;entryDy=0;entryPerimeter=0;labelBackgroundColor=#000000;strokeColor=#000000;fontColor=#000000;startArrow=none;startFill=0;endArrow=classic;endFill=1;" parent="1" source="128" target="134" edge="1">
                    <mxGeometry relative="1" as="geometry">
                        <Array as="points">
                            <mxPoint x="310" y="340"/>
                            <mxPoint x="310" y="250"/>
                        </Array>
                    </mxGeometry>
                </mxCell>
                <mxCell id="137" value="&amp;nbsp;Não&amp;nbsp;" style="edgeLabel;html=1;align=center;verticalAlign=middle;resizable=0;points=[];fontColor=#000000;" parent="136" vertex="1" connectable="0">
                    <mxGeometry x="-0.9096" relative="1" as="geometry">
                        <mxPoint x="-19" as="offset"/>
                    </mxGeometry>
                </mxCell>
                <mxCell id="128" value="Bases ativas" style="rhombus;whiteSpace=wrap;html=1;fontColor=#000000;strokeColor=#000000;" parent="1" vertex="1">
                    <mxGeometry x="370" y="300" width="80" height="80" as="geometry"/>
                </mxCell>
                <mxCell id="135" value="" style="edgeStyle=orthogonalEdgeStyle;html=1;labelBackgroundColor=#000000;strokeColor=#000000;fontColor=#000000;startArrow=none;startFill=0;endArrow=none;endFill=1;entryDx=0;entryDy=0;entryPerimeter=0;" parent="1" source="7" target="134" edge="1">
                    <mxGeometry relative="1" as="geometry">
                        <mxPoint x="410.15999999999997" y="296.79999999999995" as="targetPoint"/>
                        <mxPoint x="410" y="210" as="sourcePoint"/>
                    </mxGeometry>
                </mxCell>
                <mxCell id="134" value="" style="shape=waypoint;sketch=0;size=6;pointerEvents=1;points=[];fillColor=default;resizable=0;rotatable=0;perimeter=centerPerimeter;snapToPoint=1;strokeColor=#000000;fontColor=#FF0000;" parent="1" vertex="1">
                    <mxGeometry x="400" y="240" width="20" height="20" as="geometry"/>
                </mxCell>
                <mxCell id="151" style="edgeStyle=none;html=1;dashed=1;endArrow=oval;endFill=1;strokeColor=#FF8000;" edge="1" parent="1" source="139">
                    <mxGeometry relative="1" as="geometry">
                        <mxPoint x="430" y="360" as="targetPoint"/>
                        <Array as="points">
                            <mxPoint x="550" y="810"/>
                            <mxPoint x="550" y="360"/>
                        </Array>
                    </mxGeometry>
                </mxCell>
                <mxCell id="139" value="" style="outlineConnect=0;dashed=0;verticalLabelPosition=bottom;verticalAlign=top;align=center;html=1;shape=mxgraph.aws3.mobile_hub;fillColor=#AD688A;gradientColor=#F58435;gradientDirection=west;pointerEvents=1;labelBackgroundColor=none;strokeColor=#000000;fontColor=#000000;" parent="1" vertex="1">
                    <mxGeometry x="440" y="789.5" width="40" height="40.5" as="geometry"/>
                </mxCell>
                <mxCell id="138" value="" style="shape=cylinder3;whiteSpace=wrap;html=1;boundedLbl=1;backgroundOutline=1;size=7.333387586805429;labelBackgroundColor=none;strokeColor=#FF8000;fontColor=#FF8000;" parent="1" vertex="1">
                    <mxGeometry x="449.38" y="797" width="21.25" height="25.5" as="geometry"/>
                </mxCell>
                <mxCell id="140" value="" style="outlineConnect=0;dashed=0;verticalLabelPosition=bottom;verticalAlign=top;align=center;html=1;shape=mxgraph.aws3.mobile_hub;fillColor=#AD688A;gradientColor=#F58435;gradientDirection=west;pointerEvents=1;labelBackgroundColor=none;strokeColor=#000000;fontColor=#000000;" parent="1" vertex="1">
                    <mxGeometry x="840" y="789.5" width="40" height="40.5" as="geometry"/>
                </mxCell>
                <mxCell id="152" style="edgeStyle=none;html=1;dashed=1;strokeColor=#80FF00;endArrow=oval;endFill=1;entryX=0.893;entryY=0.617;entryDx=0;entryDy=0;entryPerimeter=0;" edge="1" parent="1" source="141" target="128">
                    <mxGeometry relative="1" as="geometry">
                        <mxPoint x="470" y="300" as="targetPoint"/>
                        <Array as="points">
                            <mxPoint x="920" y="810"/>
                            <mxPoint x="920" y="349"/>
                        </Array>
                    </mxGeometry>
                </mxCell>
                <mxCell id="141" value="" style="shape=cylinder3;whiteSpace=wrap;html=1;boundedLbl=1;backgroundOutline=1;size=7.333387586805429;labelBackgroundColor=none;strokeColor=#80FF00;fontColor=#FF8000;" parent="1" vertex="1">
                    <mxGeometry x="849.38" y="797" width="21.25" height="25.5" as="geometry"/>
                </mxCell>
                <mxCell id="147" value="" style="outlineConnect=0;dashed=0;verticalLabelPosition=bottom;verticalAlign=top;align=center;html=1;shape=mxgraph.aws3.mobile_hub;fillColor=#AD688A;gradientColor=#F58435;gradientDirection=west;pointerEvents=1;labelBackgroundColor=none;strokeColor=#000000;fontColor=#000000;" parent="1" vertex="1">
                    <mxGeometry x="840.01" y="830" width="40" height="40.5" as="geometry"/>
                </mxCell>
                <mxCell id="153" style="edgeStyle=none;html=1;dashed=1;strokeColor=#00FFFF;endArrow=oval;endFill=1;entryX=0.883;entryY=0.361;entryDx=0;entryDy=0;entryPerimeter=0;" edge="1" parent="1" source="148" target="128">
                    <mxGeometry relative="1" as="geometry">
                        <mxPoint x="460" y="310" as="targetPoint"/>
                        <Array as="points">
                            <mxPoint x="990" y="850"/>
                            <mxPoint x="990" y="329"/>
                        </Array>
                    </mxGeometry>
                </mxCell>
                <mxCell id="148" value="" style="shape=cylinder3;whiteSpace=wrap;html=1;boundedLbl=1;backgroundOutline=1;size=7.333387586805429;labelBackgroundColor=none;strokeColor=#00FFFF;fontColor=#FF8000;" parent="1" vertex="1">
                    <mxGeometry x="849.39" y="837.5" width="21.25" height="25.5" as="geometry"/>
                </mxCell>
                <mxCell id="149" value="" style="outlineConnect=0;dashed=0;verticalLabelPosition=bottom;verticalAlign=top;align=center;html=1;shape=mxgraph.aws3.mobile_hub;fillColor=#AD688A;gradientColor=#F58435;gradientDirection=west;pointerEvents=1;labelBackgroundColor=none;strokeColor=#000000;fontColor=#000000;" parent="1" vertex="1">
                    <mxGeometry x="1192.4" y="789.5" width="40" height="40.5" as="geometry"/>
                </mxCell>
                <mxCell id="154" style="edgeStyle=none;html=1;entryX=1;entryY=0;entryDx=0;entryDy=0;dashed=1;strokeColor=#FFFF00;endArrow=oval;endFill=1;" edge="1" parent="1" source="150" target="128">
                    <mxGeometry relative="1" as="geometry">
                        <Array as="points">
                            <mxPoint x="1212" y="320"/>
                        </Array>
                    </mxGeometry>
                </mxCell>
                <mxCell id="150" value="" style="shape=cylinder3;whiteSpace=wrap;html=1;boundedLbl=1;backgroundOutline=1;size=7.333387586805429;labelBackgroundColor=none;strokeColor=#FFFF00;fontColor=#FF8000;" parent="1" vertex="1">
                    <mxGeometry x="1201.78" y="797" width="21.25" height="25.5" as="geometry"/>
                </mxCell>
            </root>
        </mxGraphModel>
    </diagram>
</mxfile>